# xmcd
#
# Track frame offsets:
#	150
#	14852
#	26262
#	35922
#	46897
#	56487
#	66262
#	79572
#
# Disc length: 1263 seconds
#
# Revision: 2
# Processed by: cddbd v1.5PL3 Copyright (c) Steve Scherf et al.
# Submitted via: EasyCDDAExtractor 5.0.6
#
DISCID=6504ed08
DTITLE=Jeannie C. Riley - Harper Valley P.T.A.
DYEAR=1900
DGENRE=Country
TTITLE0=Harper Valley PTA
TTITLE1=Widow Jones
TTITLE2=Sippin' Shirley Thompson
TTITLE3=No Brass Band
TTITLE4=Shed Me No Tears
TTITLE5=Mr. Harper
TTITLE6=Ballad of Louise
TTITLE7=Run Jeannie Run
EXTD=
EXTT0=
EXTT1=
EXTT2=
EXTT3=
EXTT4=
EXTT5=
EXTT6=
EXTT7=
PLAYORDER=
